<mxfile host="65bd71144e">
    <diagram id="YeBsLe0wz5kqz-9HFI_q" name="Page-1">
        <mxGraphModel dx="1274" dy="1220" grid="1" gridSize="10" guides="1" tooltips="1" connect="1" arrows="1" fold="1" page="1" pageScale="1" pageWidth="850" pageHeight="1100" math="0" shadow="0">
            <root>
                <mxCell id="0"/>
                <mxCell id="1" parent="0"/>
                <mxCell id="2" value="" style="shape=process;whiteSpace=wrap;html=1;backgroundOutline=1;size=0.009009009009009009;" parent="1" vertex="1">
                    <mxGeometry x="320" y="220" width="1320" height="470" as="geometry"/>
                </mxCell>
                <mxCell id="3" value="&amp;lt;&amp;lt;service&amp;gt;&amp;gt;&lt;br&gt;&amp;lt;&amp;lt;subsystem&amp;gt;&amp;gt;&lt;br&gt;:PostService" style="text;html=1;strokeColor=none;fillColor=none;align=left;verticalAlign=middle;whiteSpace=wrap;rounded=0;" parent="1" vertex="1">
                    <mxGeometry x="340" y="230" width="160" height="40" as="geometry"/>
                </mxCell>
                <mxCell id="7" value="&amp;lt;&amp;lt;coordinator&amp;gt;&amp;gt;&lt;br style=&quot;border-color: var(--border-color);&quot;&gt;: APIGateway" style="shape=process;whiteSpace=wrap;html=1;backgroundOutline=1;size=0.07142857142857142;" parent="1" vertex="1">
                    <mxGeometry x="690" y="140" width="140" height="50" as="geometry"/>
                </mxCell>
                <mxCell id="8" value="&amp;lt;&amp;lt;client&amp;gt;&amp;gt;&lt;br&gt;&amp;lt;&amp;lt;subsystem&amp;gt;&amp;gt;&lt;br style=&quot;border-color: var(--border-color);&quot;&gt;: Client" style="shape=process;whiteSpace=wrap;html=1;backgroundOutline=1;size=0.07142857142857142;" parent="1" vertex="1">
                    <mxGeometry x="690" width="140" height="50" as="geometry"/>
                </mxCell>
                <mxCell id="9" value="&amp;lt;&amp;lt;demand&amp;gt;&amp;gt;&lt;br&gt;&amp;lt;&amp;lt;coordinator&amp;gt;&amp;gt;&lt;br style=&quot;border-color: var(--border-color);&quot;&gt;: CommentController" style="shape=process;whiteSpace=wrap;html=1;backgroundOutline=1;size=0.07142857142857142;" parent="1" vertex="1">
                    <mxGeometry x="450" y="300" width="180" height="50" as="geometry"/>
                </mxCell>
                <mxCell id="10" value="&amp;lt;&amp;lt;demand&amp;gt;&amp;gt;&lt;br&gt;&amp;lt;&amp;lt;coordinator&amp;gt;&amp;gt;&lt;br style=&quot;border-color: var(--border-color);&quot;&gt;: InteractionController" style="shape=process;whiteSpace=wrap;html=1;backgroundOutline=1;size=0.07142857142857142;" parent="1" vertex="1">
                    <mxGeometry x="680" y="300" width="200" height="50" as="geometry"/>
                </mxCell>
                <mxCell id="11" value="&amp;lt;&amp;lt;demand&amp;gt;&amp;gt;&lt;br&gt;&amp;lt;&amp;lt;coordinator&amp;gt;&amp;gt;&lt;br style=&quot;border-color: var(--border-color);&quot;&gt;: PostController" style="shape=process;whiteSpace=wrap;html=1;backgroundOutline=1;size=0.07142857142857142;" parent="1" vertex="1">
                    <mxGeometry x="920" y="300" width="200" height="50" as="geometry"/>
                </mxCell>
                <mxCell id="12" value="" style="endArrow=none;html=1;entryX=0.5;entryY=1;entryDx=0;entryDy=0;exitX=0.5;exitY=0;exitDx=0;exitDy=0;" parent="1" source="9" target="7" edge="1">
                    <mxGeometry width="50" height="50" relative="1" as="geometry">
                        <mxPoint x="690" y="330" as="sourcePoint"/>
                        <mxPoint x="740" y="280" as="targetPoint"/>
                    </mxGeometry>
                </mxCell>
                <mxCell id="13" value="" style="endArrow=none;html=1;entryX=0.5;entryY=1;entryDx=0;entryDy=0;exitX=0.5;exitY=0;exitDx=0;exitDy=0;" parent="1" source="10" target="7" edge="1">
                    <mxGeometry width="50" height="50" relative="1" as="geometry">
                        <mxPoint x="550" y="310" as="sourcePoint"/>
                        <mxPoint x="770" y="200" as="targetPoint"/>
                    </mxGeometry>
                </mxCell>
                <mxCell id="14" value="" style="endArrow=none;html=1;exitX=0.5;exitY=0;exitDx=0;exitDy=0;" parent="1" source="11" edge="1">
                    <mxGeometry width="50" height="50" relative="1" as="geometry">
                        <mxPoint x="790" y="310" as="sourcePoint"/>
                        <mxPoint x="760" y="190" as="targetPoint"/>
                    </mxGeometry>
                </mxCell>
                <mxCell id="15" value="&amp;lt;&amp;lt;demand&amp;gt;&amp;gt;&lt;br&gt;&amp;lt;&amp;lt;coordinator&amp;gt;&amp;gt;&lt;br style=&quot;border-color: var(--border-color);&quot;&gt;: Mediator" style="shape=process;whiteSpace=wrap;html=1;backgroundOutline=1;size=0.07142857142857142;" parent="1" vertex="1">
                    <mxGeometry x="690" y="430" width="180" height="50" as="geometry"/>
                </mxCell>
                <mxCell id="16" value="" style="endArrow=none;html=1;entryX=0.5;entryY=0;entryDx=0;entryDy=0;exitX=0.5;exitY=1;exitDx=0;exitDy=0;" parent="1" source="9" target="15" edge="1">
                    <mxGeometry width="50" height="50" relative="1" as="geometry">
                        <mxPoint x="470" y="540" as="sourcePoint"/>
                        <mxPoint x="690" y="430" as="targetPoint"/>
                    </mxGeometry>
                </mxCell>
                <mxCell id="17" value="" style="endArrow=none;html=1;entryX=0.5;entryY=0;entryDx=0;entryDy=0;exitX=0.5;exitY=1;exitDx=0;exitDy=0;" parent="1" source="10" target="15" edge="1">
                    <mxGeometry width="50" height="50" relative="1" as="geometry">
                        <mxPoint x="550" y="360" as="sourcePoint"/>
                        <mxPoint x="790" y="450" as="targetPoint"/>
                    </mxGeometry>
                </mxCell>
                <mxCell id="18" value="" style="endArrow=none;html=1;entryX=0.5;entryY=0;entryDx=0;entryDy=0;exitX=0.5;exitY=1;exitDx=0;exitDy=0;" parent="1" source="11" target="15" edge="1">
                    <mxGeometry width="50" height="50" relative="1" as="geometry">
                        <mxPoint x="790" y="360" as="sourcePoint"/>
                        <mxPoint x="790" y="450" as="targetPoint"/>
                    </mxGeometry>
                </mxCell>
                <mxCell id="19" value="&amp;lt;&amp;lt;demand&amp;gt;&amp;gt;&lt;br&gt;&amp;lt;&amp;lt;business logic&amp;gt;&amp;gt;&lt;br style=&quot;border-color: var(--border-color);&quot;&gt;: CommandHandler" style="shape=process;whiteSpace=wrap;html=1;backgroundOutline=1;size=0.07142857142857142;" parent="1" vertex="1">
                    <mxGeometry x="570" y="530" width="180" height="50" as="geometry"/>
                </mxCell>
                <mxCell id="20" value="&amp;lt;&amp;lt;coordinator&amp;gt;&amp;gt;&lt;br&gt;&amp;lt;&amp;lt;business logic&amp;gt;&amp;gt;&lt;br style=&quot;border-color: var(--border-color);&quot;&gt;: QueryHandler" style="shape=process;whiteSpace=wrap;html=1;backgroundOutline=1;size=0.07142857142857142;" parent="1" vertex="1">
                    <mxGeometry x="810" y="530" width="180" height="50" as="geometry"/>
                </mxCell>
                <mxCell id="21" value="" style="endArrow=none;html=1;entryX=0.5;entryY=1;entryDx=0;entryDy=0;exitX=0.5;exitY=0;exitDx=0;exitDy=0;" parent="1" source="19" target="15" edge="1">
                    <mxGeometry width="50" height="50" relative="1" as="geometry">
                        <mxPoint x="480" y="460" as="sourcePoint"/>
                        <mxPoint x="720" y="540" as="targetPoint"/>
                    </mxGeometry>
                </mxCell>
                <mxCell id="22" value="" style="endArrow=none;html=1;exitX=0.5;exitY=0;exitDx=0;exitDy=0;" parent="1" source="20" edge="1">
                    <mxGeometry width="50" height="50" relative="1" as="geometry">
                        <mxPoint x="670" y="540" as="sourcePoint"/>
                        <mxPoint x="780" y="480" as="targetPoint"/>
                    </mxGeometry>
                </mxCell>
                <mxCell id="23" value="&amp;lt;&amp;lt;database wrapper&amp;gt;&amp;gt;&lt;br style=&quot;border-color: var(--border-color);&quot;&gt;: ApplicationDbContext" style="shape=process;whiteSpace=wrap;html=1;backgroundOutline=1;size=0.07142857142857142;" parent="1" vertex="1">
                    <mxGeometry x="700" y="620" width="180" height="50" as="geometry"/>
                </mxCell>
                <mxCell id="24" value="" style="endArrow=none;html=1;entryX=0.5;entryY=1;entryDx=0;entryDy=0;exitX=0.5;exitY=0;exitDx=0;exitDy=0;" parent="1" source="23" target="19" edge="1">
                    <mxGeometry width="50" height="50" relative="1" as="geometry">
                        <mxPoint x="760" y="630" as="sourcePoint"/>
                        <mxPoint x="810" y="580" as="targetPoint"/>
                    </mxGeometry>
                </mxCell>
                <mxCell id="25" value="" style="endArrow=none;html=1;entryX=0.5;entryY=0;entryDx=0;entryDy=0;exitX=0.5;exitY=1;exitDx=0;exitDy=0;" parent="1" source="20" target="23" edge="1">
                    <mxGeometry width="50" height="50" relative="1" as="geometry">
                        <mxPoint x="800" y="630" as="sourcePoint"/>
                        <mxPoint x="670" y="590" as="targetPoint"/>
                    </mxGeometry>
                </mxCell>
                <mxCell id="28" value="" style="endArrow=none;html=1;entryX=0.5;entryY=1;entryDx=0;entryDy=0;exitX=0.5;exitY=0;exitDx=0;exitDy=0;" parent="1" source="7" target="8" edge="1">
                    <mxGeometry width="50" height="50" relative="1" as="geometry">
                        <mxPoint x="640" y="260" as="sourcePoint"/>
                        <mxPoint x="690" y="210" as="targetPoint"/>
                    </mxGeometry>
                </mxCell>
                <mxCell id="29" value="" style="endArrow=classic;html=1;" parent="1" edge="1">
                    <mxGeometry width="50" height="50" relative="1" as="geometry">
                        <mxPoint x="770" y="80" as="sourcePoint"/>
                        <mxPoint x="770" y="100" as="targetPoint"/>
                    </mxGeometry>
                </mxCell>
                <mxCell id="30" value="" style="endArrow=classic;html=1;dashed=1;" parent="1" edge="1">
                    <mxGeometry width="50" height="50" relative="1" as="geometry">
                        <mxPoint x="750" y="100" as="sourcePoint"/>
                        <mxPoint x="750" y="80" as="targetPoint"/>
                    </mxGeometry>
                </mxCell>
                <mxCell id="31" value="request" style="text;html=1;strokeColor=none;fillColor=none;align=center;verticalAlign=middle;whiteSpace=wrap;rounded=0;" parent="1" vertex="1">
                    <mxGeometry x="790" y="70" width="60" height="30" as="geometry"/>
                </mxCell>
                <mxCell id="32" value="response" style="text;html=1;strokeColor=none;fillColor=none;align=center;verticalAlign=middle;whiteSpace=wrap;rounded=0;" parent="1" vertex="1">
                    <mxGeometry x="670" y="70" width="60" height="30" as="geometry"/>
                </mxCell>
                <mxCell id="34" value="" style="endArrow=classic;html=1;exitX=0.375;exitY=0.043;exitDx=0;exitDy=0;exitPerimeter=0;entryX=0.352;entryY=0.064;entryDx=0;entryDy=0;entryPerimeter=0;" parent="1" edge="1">
                    <mxGeometry width="50" height="50" relative="1" as="geometry">
                        <mxPoint x="645.0000000000001" y="239.21000000000004" as="sourcePoint"/>
                        <mxPoint x="624.76" y="249.07999999999998" as="targetPoint"/>
                    </mxGeometry>
                </mxCell>
                <mxCell id="35" value="" style="endArrow=classic;html=1;exitX=0.375;exitY=0.043;exitDx=0;exitDy=0;exitPerimeter=0;entryX=0.523;entryY=0.106;entryDx=0;entryDy=0;entryPerimeter=0;" parent="1" edge="1">
                    <mxGeometry width="50" height="50" relative="1" as="geometry">
                        <mxPoint x="777.2400000000001" y="245.06000000000003" as="sourcePoint"/>
                        <mxPoint x="781.2400000000002" y="270.82" as="targetPoint"/>
                    </mxGeometry>
                </mxCell>
                <mxCell id="37" value="" style="endArrow=classic;html=1;exitX=0.727;exitY=0.106;exitDx=0;exitDy=0;exitPerimeter=0;" parent="1" edge="1">
                    <mxGeometry width="50" height="50" relative="1" as="geometry">
                        <mxPoint x="959.76" y="265.82" as="sourcePoint"/>
                        <mxPoint x="980" y="276" as="targetPoint"/>
                    </mxGeometry>
                </mxCell>
                <mxCell id="38" value="" style="endArrow=classic;html=1;exitX=0.636;exitY=0.362;exitDx=0;exitDy=0;exitPerimeter=0;entryX=0.602;entryY=0.383;entryDx=0;entryDy=0;entryPerimeter=0;" parent="1" edge="1">
                    <mxGeometry width="50" height="50" relative="1" as="geometry">
                        <mxPoint x="882.6800000000001" y="387.14" as="sourcePoint"/>
                        <mxPoint x="852.76" y="397.01" as="targetPoint"/>
                    </mxGeometry>
                </mxCell>
                <mxCell id="39" value="" style="endArrow=classic;html=1;exitX=0.636;exitY=0.362;exitDx=0;exitDy=0;exitPerimeter=0;entryX=0.54;entryY=0.426;entryDx=0;entryDy=0;entryPerimeter=0;" parent="1" edge="1">
                    <mxGeometry width="50" height="50" relative="1" as="geometry">
                        <mxPoint x="786.96" y="381" as="sourcePoint"/>
                        <mxPoint x="787.2" y="411.2199999999999" as="targetPoint"/>
                    </mxGeometry>
                </mxCell>
                <mxCell id="40" value="" style="endArrow=classic;html=1;entryX=0.477;entryY=0.404;entryDx=0;entryDy=0;entryPerimeter=0;" parent="1" edge="1">
                    <mxGeometry width="50" height="50" relative="1" as="geometry">
                        <mxPoint x="708" y="398" as="sourcePoint"/>
                        <mxPoint x="737.76" y="407.88000000000005" as="targetPoint"/>
                    </mxGeometry>
                </mxCell>
                <mxCell id="42" value="" style="endArrow=classic;html=1;exitX=0.636;exitY=0.362;exitDx=0;exitDy=0;exitPerimeter=0;entryX=0.602;entryY=0.383;entryDx=0;entryDy=0;entryPerimeter=0;" parent="1" edge="1">
                    <mxGeometry width="50" height="50" relative="1" as="geometry">
                        <mxPoint x="714.96" y="500" as="sourcePoint"/>
                        <mxPoint x="685.04" y="509.87" as="targetPoint"/>
                    </mxGeometry>
                </mxCell>
                <mxCell id="43" value="" style="endArrow=classic;html=1;entryX=0.477;entryY=0.404;entryDx=0;entryDy=0;entryPerimeter=0;" parent="1" edge="1">
                    <mxGeometry width="50" height="50" relative="1" as="geometry">
                        <mxPoint x="840.24" y="500" as="sourcePoint"/>
                        <mxPoint x="870" y="509.8800000000001" as="targetPoint"/>
                    </mxGeometry>
                </mxCell>
                <mxCell id="44" value="" style="endArrow=classic;html=1;entryX=0.477;entryY=0.404;entryDx=0;entryDy=0;entryPerimeter=0;" parent="1" edge="1">
                    <mxGeometry width="50" height="50" relative="1" as="geometry">
                        <mxPoint x="730" y="590" as="sourcePoint"/>
                        <mxPoint x="759.76" y="599.8800000000001" as="targetPoint"/>
                    </mxGeometry>
                </mxCell>
                <mxCell id="45" value="" style="endArrow=classic;html=1;exitX=0.636;exitY=0.362;exitDx=0;exitDy=0;exitPerimeter=0;entryX=0.602;entryY=0.383;entryDx=0;entryDy=0;entryPerimeter=0;" parent="1" edge="1">
                    <mxGeometry width="50" height="50" relative="1" as="geometry">
                        <mxPoint x="839.92" y="590" as="sourcePoint"/>
                        <mxPoint x="810" y="599.87" as="targetPoint"/>
                    </mxGeometry>
                </mxCell>
                <mxCell id="46" value="&amp;lt;&amp;lt;demand&amp;gt;&amp;gt;&lt;br&gt;&amp;lt;&amp;lt;coordinator&amp;gt;&amp;gt;&lt;br style=&quot;border-color: var(--border-color);&quot;&gt;: TagController" style="shape=process;whiteSpace=wrap;html=1;backgroundOutline=1;size=0.07142857142857142;" parent="1" vertex="1">
                    <mxGeometry x="1150" y="300" width="200" height="50" as="geometry"/>
                </mxCell>
                <mxCell id="47" value="" style="endArrow=none;html=1;exitX=0.5;exitY=0;exitDx=0;exitDy=0;entryX=0.5;entryY=1;entryDx=0;entryDy=0;" parent="1" source="46" target="7" edge="1">
                    <mxGeometry width="50" height="50" relative="1" as="geometry">
                        <mxPoint x="1030" y="310" as="sourcePoint"/>
                        <mxPoint x="770" y="200" as="targetPoint"/>
                    </mxGeometry>
                </mxCell>
                <mxCell id="48" value="" style="endArrow=classic;html=1;exitX=0.776;exitY=0.106;exitDx=0;exitDy=0;exitPerimeter=0;" parent="1" edge="1">
                    <mxGeometry width="50" height="50" relative="1" as="geometry">
                        <mxPoint x="1152.3200000000002" y="265.82" as="sourcePoint"/>
                        <mxPoint x="1182.24" y="276.18" as="targetPoint"/>
                    </mxGeometry>
                </mxCell>
                <mxCell id="49" value="" style="endArrow=none;html=1;entryX=0.5;entryY=0;entryDx=0;entryDy=0;exitX=0.529;exitY=0.99;exitDx=0;exitDy=0;exitPerimeter=0;" parent="1" source="46" target="15" edge="1">
                    <mxGeometry width="50" height="50" relative="1" as="geometry">
                        <mxPoint x="1260" y="350" as="sourcePoint"/>
                        <mxPoint x="1020" y="430" as="targetPoint"/>
                    </mxGeometry>
                </mxCell>
                <mxCell id="50" value="" style="endArrow=classic;html=1;entryX=0.673;entryY=0.383;entryDx=0;entryDy=0;entryPerimeter=0;" parent="1" edge="1">
                    <mxGeometry width="50" height="50" relative="1" as="geometry">
                        <mxPoint x="1080" y="390" as="sourcePoint"/>
                        <mxPoint x="1040.11" y="398.01" as="targetPoint"/>
                    </mxGeometry>
                </mxCell>
                <mxCell id="51" value="&amp;lt;&amp;lt;client&amp;gt;&amp;gt;&lt;br&gt;&amp;lt;&amp;lt;subsystem&amp;gt;&amp;gt;&lt;br style=&quot;border-color: var(--border-color);&quot;&gt;: RequestClient" style="shape=process;whiteSpace=wrap;html=1;backgroundOutline=1;size=0.07142857142857142;" vertex="1" parent="1">
                    <mxGeometry x="1321" width="140" height="50" as="geometry"/>
                </mxCell>
                <mxCell id="52" value="&amp;lt;&amp;lt;client&amp;gt;&amp;gt;&lt;br&gt;&amp;lt;&amp;lt;subsystem&amp;gt;&amp;gt;&lt;br style=&quot;border-color: var(--border-color);&quot;&gt;: Producer" style="shape=process;whiteSpace=wrap;html=1;backgroundOutline=1;size=0.07142857142857142;" vertex="1" parent="1">
                    <mxGeometry x="1501" width="140" height="50" as="geometry"/>
                </mxCell>
                <mxCell id="53" value="&amp;lt;&amp;lt;coordinator&amp;gt;&amp;gt;&lt;br style=&quot;border-color: var(--border-color);&quot;&gt;: RabbitMQ" style="shape=process;whiteSpace=wrap;html=1;backgroundOutline=1;size=0.07142857142857142;" vertex="1" parent="1">
                    <mxGeometry x="1421" y="120" width="140" height="50" as="geometry"/>
                </mxCell>
                <mxCell id="54" value="" style="endArrow=none;html=1;entryX=0.5;entryY=1;entryDx=0;entryDy=0;exitX=0.5;exitY=0;exitDx=0;exitDy=0;" edge="1" parent="1" source="53" target="51">
                    <mxGeometry width="50" height="50" relative="1" as="geometry">
                        <mxPoint x="1431" y="140" as="sourcePoint"/>
                        <mxPoint x="1431" y="50" as="targetPoint"/>
                    </mxGeometry>
                </mxCell>
                <mxCell id="55" value="response" style="text;html=1;strokeColor=none;fillColor=none;align=center;verticalAlign=middle;whiteSpace=wrap;rounded=0;" vertex="1" parent="1">
                    <mxGeometry x="1361" y="80" width="60" height="30" as="geometry"/>
                </mxCell>
                <mxCell id="56" value="Broadcast" style="text;html=1;strokeColor=none;fillColor=none;align=center;verticalAlign=middle;whiteSpace=wrap;rounded=0;" vertex="1" parent="1">
                    <mxGeometry x="1551" y="80" width="60" height="30" as="geometry"/>
                </mxCell>
                <mxCell id="57" value="&amp;lt;&amp;lt;demand&amp;gt;&amp;gt;&lt;br&gt;&amp;lt;&amp;lt;coordinator&amp;gt;&amp;gt;&lt;br style=&quot;border-color: var(--border-color);&quot;&gt;: Consumer" style="shape=process;whiteSpace=wrap;html=1;backgroundOutline=1;size=0.07142857142857142;" vertex="1" parent="1">
                    <mxGeometry x="1391" y="300" width="200" height="50" as="geometry"/>
                </mxCell>
                <mxCell id="58" value="" style="endArrow=none;html=1;entryX=0.5;entryY=1;entryDx=0;entryDy=0;exitX=0.5;exitY=0;exitDx=0;exitDy=0;" edge="1" parent="1" source="57" target="53">
                    <mxGeometry width="50" height="50" relative="1" as="geometry">
                        <mxPoint x="1451" y="240" as="sourcePoint"/>
                        <mxPoint x="1351" y="170" as="targetPoint"/>
                    </mxGeometry>
                </mxCell>
                <mxCell id="59" value="" style="endArrow=classic;html=1;exitX=0.828;exitY=0.085;exitDx=0;exitDy=0;exitPerimeter=0;" edge="1" parent="1">
                    <mxGeometry width="50" height="50" relative="1" as="geometry">
                        <mxPoint x="1502.3600000000004" y="249.95000000000005" as="sourcePoint"/>
                        <mxPoint x="1502" y="269.9999999999999" as="targetPoint"/>
                    </mxGeometry>
                </mxCell>
                <mxCell id="60" value="" style="endArrow=none;html=1;entryX=0.557;entryY=1.035;entryDx=0;entryDy=0;exitX=0.5;exitY=0;exitDx=0;exitDy=0;entryPerimeter=0;" edge="1" parent="1" source="53" target="52">
                    <mxGeometry width="50" height="50" relative="1" as="geometry">
                        <mxPoint x="1501" y="130" as="sourcePoint"/>
                        <mxPoint x="1401" y="60" as="targetPoint"/>
                    </mxGeometry>
                </mxCell>
                <mxCell id="61" value="" style="endArrow=classic;html=1;" edge="1" parent="1">
                    <mxGeometry width="50" height="50" relative="1" as="geometry">
                        <mxPoint x="1442" y="76" as="sourcePoint"/>
                        <mxPoint x="1461" y="91" as="targetPoint"/>
                    </mxGeometry>
                </mxCell>
                <mxCell id="62" value="" style="endArrow=classic;html=1;dashed=1;" edge="1" parent="1">
                    <mxGeometry width="50" height="50" relative="1" as="geometry">
                        <mxPoint x="1445" y="101" as="sourcePoint"/>
                        <mxPoint x="1425" y="85" as="targetPoint"/>
                    </mxGeometry>
                </mxCell>
                <mxCell id="63" value="" style="endArrow=classic;html=1;" edge="1" parent="1">
                    <mxGeometry width="50" height="50" relative="1" as="geometry">
                        <mxPoint x="1551" y="81" as="sourcePoint"/>
                        <mxPoint x="1531" y="101" as="targetPoint"/>
                    </mxGeometry>
                </mxCell>
                <mxCell id="64" value="" style="endArrow=none;html=1;entryX=1;entryY=0.5;entryDx=0;entryDy=0;exitX=0.5;exitY=1;exitDx=0;exitDy=0;" edge="1" parent="1" source="57" target="15">
                    <mxGeometry width="50" height="50" relative="1" as="geometry">
                        <mxPoint x="1265.8000000000002" y="359.5" as="sourcePoint"/>
                        <mxPoint x="790" y="440" as="targetPoint"/>
                    </mxGeometry>
                </mxCell>
                <mxCell id="65" value="" style="endArrow=classic;html=1;entryX=0.673;entryY=0.383;entryDx=0;entryDy=0;entryPerimeter=0;" edge="1" parent="1">
                    <mxGeometry width="50" height="50" relative="1" as="geometry">
                        <mxPoint x="1116" y="426" as="sourcePoint"/>
                        <mxPoint x="1076.11" y="434.01" as="targetPoint"/>
                    </mxGeometry>
                </mxCell>
            </root>
        </mxGraphModel>
    </diagram>
</mxfile>